<svg width="46" height="42" viewBox="0 0 46 42" fill="none" xmlns="http://www.w3.org/2000/svg">
<path d="M31.11 30.3034H26.7615C26.4683 30.3034 26.2774 30.0398 26.4081 29.8155L27.9258 27.21C28.0255 27.0543 28.1637 26.927 28.3271 26.8406C28.4904 26.7541 28.6734 26.7114 28.8582 26.7165H33.0057C33.2725 26.7165 33.4462 26.9563 33.3273 27.1605L31.6689 30.0076C31.6092 30.1009 31.5263 30.1772 31.4284 30.229C31.3304 30.2809 31.2207 30.3065 31.11 30.3034V30.3034Z" fill="white"/>
<path d="M15.9297 31.695H11.269C11.2013 31.7009 11.1333 31.6887 11.0718 31.6597C11.0104 31.6308 10.9578 31.586 10.9193 31.53C10.8807 31.4741 10.8578 31.4089 10.8527 31.3412C10.8475 31.2734 10.8605 31.2056 10.8902 31.1445L12.5168 28.2048C12.6192 28.0318 12.7657 27.8891 12.9412 27.7913C13.1168 27.6935 13.3152 27.644 13.5162 27.648H17.9616C18.0231 27.6427 18.085 27.6538 18.1409 27.6801C18.1968 27.7065 18.2448 27.7472 18.2798 27.7981C18.3148 27.849 18.3357 27.9083 18.3404 27.97C18.345 28.0316 18.3333 28.0934 18.3063 28.149L16.5287 31.3612C16.4674 31.4649 16.3796 31.5504 16.2743 31.6091C16.1691 31.6677 16.0501 31.6974 15.9297 31.695Z" fill="white"/>
<path d="M10.9967 27.1738H9.3159C9.20256 27.1738 9.12876 27.0813 9.17928 27.0026L9.76595 26.0881C9.80729 26.0319 9.86175 25.9868 9.92458 25.9566C9.98741 25.9264 10.0567 25.912 10.1264 25.9148H11.7295C11.8327 25.9148 11.8998 25.999 11.8538 26.0707L11.2128 27.07C11.188 27.1037 11.1553 27.1307 11.1177 27.1488C11.08 27.1669 11.0385 27.1755 10.9967 27.1738V27.1738Z" fill="white"/>
<path d="M13.053 21.764H11.3036C11.1856 21.764 11.1088 21.6677 11.1614 21.5857L11.772 20.6339C11.815 20.5754 11.8717 20.5284 11.9371 20.497C12.0025 20.4656 12.0746 20.4507 12.1471 20.4536H13.8157C13.923 20.4536 13.9929 20.5412 13.9451 20.6158L13.2779 21.6559C13.2521 21.6909 13.2181 21.7191 13.1789 21.7379C13.1397 21.7568 13.0965 21.7657 13.053 21.764Z" fill="white"/>
<path d="M33.8254 21.3174H31.7439C31.6036 21.3174 31.5122 21.1944 31.5747 21.0897L32.3012 19.8739C32.3499 19.8008 32.4164 19.7412 32.4945 19.7009C32.5726 19.6606 32.6597 19.6409 32.7475 19.6437H34.7328C34.8605 19.6437 34.9437 19.7556 34.8868 19.8508L34.0929 21.1793C34.0638 21.2232 34.0239 21.2589 33.9771 21.283C33.9303 21.3072 33.878 21.319 33.8254 21.3174Z" fill="white"/>
<path d="M38.8816 17.793H35.7174C35.504 17.793 35.3651 17.606 35.4602 17.4469L36.5646 15.5987C36.6386 15.4874 36.7397 15.3969 36.8584 15.3356C36.9772 15.2744 37.1095 15.2444 37.2431 15.2486H40.2611C40.4553 15.2486 40.5817 15.4187 40.4952 15.5635L39.2884 17.5831C39.244 17.6498 39.1834 17.7041 39.1122 17.7408C39.0411 17.7775 38.9617 17.7955 38.8816 17.793Z" fill="white"/>
<path d="M36.5114 25.0597H34.5611C34.4296 25.0597 34.344 24.9454 34.4026 24.8481L35.0833 23.7181C35.1291 23.6499 35.1916 23.5945 35.2647 23.557C35.3379 23.5196 35.4194 23.5014 35.5015 23.504H37.3617C37.4814 23.504 37.5593 23.6081 37.506 23.6966L36.7621 24.9314C36.7346 24.9723 36.6972 25.0055 36.6533 25.0279C36.6095 25.0504 36.5606 25.0613 36.5114 25.0597V25.0597Z" fill="white"/>
<path d="M14.6987 24.898H12.7593C12.6286 24.898 12.5434 24.7843 12.6017 24.6876L13.2786 23.5639C13.3242 23.4961 13.3863 23.441 13.459 23.4038C13.5317 23.3665 13.6127 23.3484 13.6944 23.3511H15.5442C15.6632 23.3511 15.7406 23.4545 15.6876 23.5425L14.9479 24.7704C14.9206 24.8111 14.8834 24.8441 14.8398 24.8664C14.7962 24.8887 14.7476 24.8996 14.6987 24.898V24.898Z" fill="white"/>
<path d="M9.5443 19.8254H7.0885C6.92291 19.8254 6.81508 19.6814 6.8889 19.5589L7.74602 18.136C7.80377 18.0502 7.8824 17.9804 7.9745 17.9332C8.06661 17.8861 8.1692 17.8631 8.27261 17.8665H10.6149C10.7656 17.8665 10.8638 17.9975 10.7966 18.109L9.85996 19.6638C9.82534 19.7153 9.77822 19.7571 9.72301 19.7854C9.66779 19.8136 9.60629 19.8274 9.5443 19.8254V19.8254Z" fill="white"/>
<path d="M30.4991 9.86517L29.4163 12.6231L22.9289 15.5388L16.4416 12.6231L15.3589 9.86517L3.43164 0L22.9286 33.0071V33.0086L22.9289 33.0078L22.9294 33.0086V33.0071L42.4263 0L30.4991 9.86517ZM21.9658 16.4641L22.6079 26.6983L17.3637 14.62L21.9658 16.4641ZM7.95152 5.28294L14.2188 10.7829L22.7885 30.3522L7.95152 5.28294ZM24.0259 16.4641L28.628 14.62L23.3838 26.6983L24.0259 16.4641ZM31.6139 10.7829L37.8813 5.28294L23.0443 30.3522L31.6139 10.7829Z" fill="white"/>
<path d="M15.7125 34.7224H0V42H15.7125V34.7224Z" fill="#D9261C"/>
<path d="M45.8602 34.7224H15.7129V42H45.8602V34.7224Z" fill="#171819"/>
<path d="M6.23138 36.2296C6.56807 36.2221 6.89471 36.3446 7.1433 36.5719C7.32424 36.7288 7.44805 36.9413 7.49535 37.1761C7.54265 37.4109 7.51077 37.6548 7.40471 37.8696C7.32979 38.0172 7.22487 38.1477 7.09666 38.2525C7.29827 38.3511 7.47009 38.5015 7.5946 38.6882C7.7172 38.869 7.78223 39.0827 7.78116 39.3012C7.78239 39.4616 7.74884 39.6203 7.68277 39.7665C7.61671 39.9127 7.5197 40.0428 7.39849 40.1478C7.14576 40.3788 6.81325 40.5026 6.47102 40.4932H2.01758V36.2296H6.23138ZM3.18156 37.9662H5.85492C5.97354 37.9692 6.08861 37.9256 6.17541 37.8447C6.21653 37.8075 6.24941 37.7622 6.27191 37.7115C6.2944 37.6609 6.30603 37.6061 6.30603 37.5506C6.30603 37.4952 6.2944 37.4404 6.27191 37.3898C6.24941 37.3391 6.21653 37.2937 6.17541 37.2566C6.08856 37.1758 5.97352 37.1322 5.85492 37.1351H3.18156V37.9662ZM3.18156 39.5906H6.14742C6.266 39.5936 6.38105 39.5501 6.46791 39.4693C6.51188 39.4342 6.54675 39.389 6.56952 39.3375C6.59229 39.2861 6.6023 39.2299 6.59872 39.1737C6.59931 39.1176 6.58763 39.0621 6.56449 39.011C6.54136 38.9599 6.50734 38.9144 6.4648 38.8779C6.42237 38.8381 6.37248 38.8072 6.31799 38.7869C6.26351 38.7666 6.20552 38.7574 6.14742 38.7597H3.18156V39.5906Z" fill="white"/>
<path d="M13.9229 36.2293V37.1785H11.7133V40.4929H10.5493V37.1785H8.34277V36.2293H13.9229Z" fill="white"/>
<path d="M24.3949 36.2293V40.4929H23.2309V37.7915L21.4943 40.11H20.4953L18.7587 37.7915V40.4929H17.5947V36.2293H18.8023L20.9932 39.2169L23.1842 36.2293H24.3949Z" fill="white"/>
<path d="M29.6576 36.2297C30.0161 36.2209 30.3641 36.3514 30.6286 36.5937C30.7556 36.7022 30.8572 36.8374 30.9261 36.9897C30.9949 37.1419 31.0294 37.3075 31.027 37.4745V39.2484C31.0294 39.4155 30.9949 39.581 30.9261 39.7333C30.8572 39.8855 30.7556 40.0207 30.6286 40.1292C30.3641 40.3716 30.0161 40.502 29.6576 40.4933H26.3246C25.9661 40.5013 25.6184 40.3709 25.3536 40.1292C25.2272 40.0201 25.1261 39.8848 25.0573 39.7327C24.9885 39.5806 24.9536 39.4153 24.9551 39.2484V37.4745C24.9536 37.3076 24.9885 37.1423 25.0573 36.9902C25.1261 36.8381 25.2272 36.7028 25.3536 36.5937C25.6184 36.352 25.9661 36.2216 26.3246 36.2297H29.6576ZM26.2777 37.3251C26.2265 37.368 26.1856 37.4219 26.1582 37.4828C26.1307 37.5437 26.1174 37.6101 26.1191 37.6769V39.0461C26.1188 39.1131 26.1328 39.1794 26.1602 39.2406C26.1875 39.3018 26.2276 39.3565 26.2777 39.401C26.3854 39.495 26.5239 39.5459 26.6668 39.544H29.3153C29.4581 39.5427 29.5959 39.4909 29.7042 39.3979C29.7542 39.3539 29.7942 39.2998 29.8216 39.2391C29.849 39.1785 29.8631 39.1127 29.863 39.0461V37.6769C29.8646 37.6096 29.8512 37.5429 29.8237 37.4815C29.7962 37.4201 29.7554 37.3656 29.7042 37.322C29.6533 37.2719 29.5922 37.2332 29.5252 37.2086C29.4581 37.1839 29.3866 37.1738 29.3153 37.1789H26.6668C26.5955 37.1761 26.5243 37.1876 26.4575 37.2127C26.3907 37.2378 26.3295 37.276 26.2777 37.3251V37.3251Z" fill="white"/>
<path d="M37.17 36.2293V37.1785H34.9604V40.4929H33.7964V37.1785H31.5898V36.2293H37.17Z" fill="white"/>
<path d="M42.433 36.2297C42.7915 36.2209 43.1395 36.3514 43.404 36.5937C43.531 36.7022 43.6326 36.8374 43.7015 36.9897C43.7704 37.1419 43.8048 37.3075 43.8024 37.4745V39.2484C43.8048 39.4155 43.7704 39.581 43.7015 39.7333C43.6326 39.8855 43.531 40.0207 43.404 40.1292C43.1395 40.3716 42.7915 40.502 42.433 40.4933H39.1C38.7415 40.5013 38.3938 40.3709 38.129 40.1292C38.0026 40.0201 37.9015 39.8848 37.8327 39.7327C37.7639 39.5806 37.729 39.4153 37.7305 39.2484V37.4745C37.729 37.3076 37.7639 37.1423 37.8327 36.9902C37.9015 36.8381 38.0026 36.7028 38.129 36.5937C38.3938 36.352 38.7415 36.2216 39.1 36.2297H42.433ZM39.0531 37.3251C39.0019 37.368 38.961 37.4219 38.9336 37.4828C38.9061 37.5437 38.8928 37.6101 38.8945 37.6769V39.0461C38.8942 39.1131 38.9082 39.1794 38.9356 39.2406C38.9629 39.3018 39.003 39.3565 39.0531 39.401C39.1608 39.495 39.2993 39.5459 39.4422 39.544H42.0907C42.2335 39.5427 42.3713 39.4909 42.4796 39.3979C42.5296 39.3539 42.5696 39.2998 42.597 39.2391C42.6244 39.1785 42.6385 39.1127 42.6384 39.0461V37.6769C42.64 37.6096 42.6266 37.5429 42.5991 37.4815C42.5716 37.4201 42.5308 37.3656 42.4796 37.322C42.4287 37.2719 42.3676 37.2332 42.3006 37.2086C42.2335 37.1839 42.162 37.1738 42.0907 37.1789H39.4422C39.3709 37.1761 39.2997 37.1876 39.2329 37.2127C39.1661 37.2378 39.105 37.276 39.0531 37.3251H39.0531Z" fill="white"/>
</svg>
